<?xml version="1.0" encoding="UTF-8" standalone="no"?>
<!-- Created with Inkscape (http://www.inkscape.org/) -->

<svg
   width="217.15199mm"
   height="42.580002mm"
   viewBox="0 0 217.15199 42.580002"
   version="1.1"
   id="svg352"
   inkscape:version="1.2.2 (732a01da63, 2022-12-09)"
   sodipodi:docname="圖畫.svg"
   xmlns:inkscape="http://www.inkscape.org/namespaces/inkscape"
   xmlns:sodipodi="http://sodipodi.sourceforge.net/DTD/sodipodi-0.dtd"
   xmlns="http://www.w3.org/2000/svg"
   xmlns:svg="http://www.w3.org/2000/svg">
  <sodipodi:namedview
     id="namedview354"
     pagecolor="#ffffff"
     bordercolor="#000000"
     borderopacity="0.25"
     inkscape:showpageshadow="2"
     inkscape:pageopacity="0.0"
     inkscape:pagecheckerboard="0"
     inkscape:deskcolor="#d1d1d1"
     inkscape:document-units="mm"
     showgrid="false"
     inkscape:zoom="0.74564396"
     inkscape:cx="452.62889"
     inkscape:cy="346.00964"
     inkscape:window-width="1920"
     inkscape:window-height="1017"
     inkscape:window-x="-8"
     inkscape:window-y="-8"
     inkscape:window-maximized="1"
     inkscape:current-layer="layer1" />
  <defs
     id="defs349" />
  <g
     inkscape:label="圖層 1"
     inkscape:groupmode="layer"
     id="layer1">
    <g
       id="g884"
       transform="matrix(0.99999302,0,0,0.99999302,-39.922967,-83.709268)">
      <g
         id="g2391-1-3-9"
         transform="matrix(0.36502446,-0.0958065,0,0.36502446,26.235351,96.643271)">
        <path
           id="rect228-1-2-3-5"
           style="color:#000000;fill:#000000;-inkscape-stroke:none"
           d="M 42.500248,4.7640503 A 5,5 0 0 0 37.500037,9.7642619 V 9.9358276 71.639555 a 5,5 0 0 0 5.000211,4.999695 H 82.499874 V 66.638826 H 47.499943 V 51.464042 14.763957 9.7642619 4.7640503 Z m 14.999601,0 v 9.9999067 h 84.999981 5.00021 v 4.314465 47.560404 h -9.99991 V 76.63925 h 14.99961 a 5,5 0 0 0 5.00021,-4.999695 V 19.078422 14.763957 9.0785156 h -0.0476 A 5,5 0 0 0 152.5002,4.7640503 h -5.00021 -5.00021 z M 92.49978,66.638826 V 76.63925 h 35.00045 V 66.638826 Z" />
        <path
           id="rect228-3-1-7-3-1"
           style="color:#000000;fill:#000000;stroke-width:0.8;stroke-dasharray:none"
           d="m 97.499992,34.764286 a 5,5 0 0 0 -5.000212,5.000212 v 0.171566 61.703206 a 5,5 0 0 0 5.000212,5.00022 H 102.5002 V 101.63927 96.639062 82.260095 44.764193 h 34.99993 v -9.999907 z m 50.000048,0 v 9.999907 h 9.99991 v -9.999907 z m 19.99981,0 v 9.999907 h 30.00024 4.99969 v 51.874869 h -4.31394 -85.68573 v 10.000428 h 85.68573 4.31446 5.68544 v -0.0496 a 5,5 0 0 0 4.31447,-4.95112 V 96.639062 91.638851 49.079175 44.764193 39.078752 h -0.0475 A 5,5 0 0 0 207.5,34.764286 h -4.9997 -5.00021 z" />
      </g>
      <g
         aria-label="Linkfy"
         id="text1893"
         style="font-size:49.6853px;stroke-width:0.665425"
         transform="translate(-0.49721138)">
        <path
           d="m 119.74639,86.392859 h 10.78171 l -5.86286,27.376601 h 10.08612 l -0.84466,4.17356 h -20.86782 z"
           style="-inkscape-font-specification:'Racing Sans One'"
           id="path855" />
        <path
           d="m 146.57647,117.94302 h -10.08611 l 4.52136,-21.364675 h 10.18549 z m 5.91255,-27.873449 q 0,1.142762 -0.49685,1.987412 -0.44717,0.84465 -1.24213,1.440874 -0.74528,0.596223 -1.73899,0.894335 -0.9937,0.298112 -2.03709,0.298112 -1.98742,0 -3.32892,-0.944021 -1.3415,-0.944021 -1.3415,-2.981118 0,-1.093076 0.44717,-1.937726 0.44716,-0.894336 1.19244,-1.440874 0.79497,-0.596224 1.78867,-0.894336 1.0434,-0.298111 2.13647,-0.298111 1.93773,0 3.27923,0.94402 1.3415,0.944021 1.3415,2.931433 z"
           style="-inkscape-font-specification:'Racing Sans One'"
           id="path857" />
        <path
           d="m 164.86063,99.758204 q 1.04339,-0.993706 2.33521,-1.838356 1.14276,-0.695594 2.683,-1.291818 1.54025,-0.596223 3.42829,-0.596223 2.58363,0 4.27293,1.341503 1.6893,1.291818 1.6893,3.57734 0,0.64591 -0.14905,1.58993 -0.14906,0.89434 -0.3478,1.88804 -0.19874,0.99371 -0.44717,2.0371 -0.19874,0.99371 -0.34779,1.78867 l -2.08679,9.68863 h -10.08611 l 2.73269,-12.96786 q 0.0994,-0.64591 0.24843,-1.29182 0.14905,-0.69559 0.14905,-1.24213 0,-0.74528 -0.39748,-1.19245 -0.3478,-0.49685 -1.09308,-0.49685 -0.89433,0 -1.73898,0.64591 -0.79497,0.64591 -1.24213,1.09308 l -3.27923,15.45212 h -10.13581 l 4.52137,-21.364675 h 8.0987 l 0.89434,3.179859 z"
           style="-inkscape-font-specification:'Racing Sans One'"
           id="path859" />
        <path
           d="m 192.93284,105.62107 11.57668,-9.042725 h 6.55846 l -9.88738,8.098705 7.40311,13.26597 h -11.1295 l -5.0679,-9.98674 -2.08679,9.98674 h -10.1358 l 7.05532,-33.388517 h 10.18548 z"
           style="-inkscape-font-specification:'Racing Sans One'"
           id="path861" />
        <path
           d="m 212.75732,96.578345 h 3.82577 l 0.44717,-2.037097 q 0.64591,-2.981118 1.88804,-5.018215 1.24213,-2.086783 2.93143,-3.378601 1.73899,-1.291817 3.92514,-1.838356 2.18615,-0.596223 4.67042,-0.596223 1.54024,0 3.27923,0.198741 1.73898,0.198741 3.62702,0.645909 l -0.79496,3.974824 q -1.09308,-0.149056 -2.33521,-0.198741 -1.24213,-0.09937 -1.98741,-0.09937 -0.99371,0 -1.73899,0.149056 -0.69559,0.149056 -1.24213,0.596223 -0.54654,0.397483 -0.94402,1.142762 -0.39748,0.74528 -0.64591,1.987412 l -0.94402,4.471677 h 5.21696 l -0.64591,3.328915 h -5.26664 l -3.82577,18.035759 h -10.1358 l 3.82576,-18.035759 h -3.87545 z"
           style="-inkscape-font-specification:'Racing Sans One'"
           id="path863" />
        <path
           d="m 242.96595,96.578345 1.49056,14.607475 7.85028,-14.607475 h 5.26664 l -11.97416,21.364675 q -1.78867,3.13018 -3.62702,4.81948 -1.83836,1.6893 -4.02451,2.48426 -2.13647,0.79497 -4.76979,0.89434 -2.58364,0.14905 -5.91255,0.14905 l 0.74528,-3.42828 q 1.63961,0 3.0308,-0.0497 1.44087,-0.0497 2.28552,-0.29811 1.14277,-0.29811 1.63962,-1.09308 0.49685,-0.74527 0.49685,-2.23583 0,-0.99371 -0.19874,-2.28553 -0.14906,-1.29182 -0.3478,-2.73269 l -2.43458,-17.588595 z"
           style="-inkscape-font-specification:'Racing Sans One'"
           id="path865" />
      </g>
    </g>
  </g>
</svg>
